<svg width="817" height="328" viewBox="0 0 817 328" fill="none" xmlns="http://www.w3.org/2000/svg">
<path d="M369.506 158.75H434.506V239C418.756 247.25 393.756 253.75 369.756 253.75C315.756 253.75 289.006 217.25 289.006 165C289.006 117.25 315.756 76.25 374.756 76.25C397.756 76.25 419.256 82.5 432.506 88.5L422.506 115.5C409.756 110.25 392.756 106 374.756 106C339.506 106 325.256 129.75 325.256 165C325.256 200.75 338.756 224 371.256 224C382.006 224 391.756 222.75 399.756 219.5V187.75L369.506 183.5V158.75ZM684.166 80V82.5L637.916 250H596.666L562.416 118.25H562.166L527.916 250H486.416L440.166 82.5V80H477.416L506.166 212.5H506.666L541.916 80H582.416L617.666 212.5H618.166L646.666 80H684.166ZM684.857 237.5L695.607 210.25C706.107 216.75 727.107 224.5 742.607 224.5C761.357 224.5 770.607 217.25 770.607 203C770.607 192 764.357 187.5 746.607 181.5L728.357 175.5C701.357 166.75 688.107 150 688.107 128.25C688.107 97.25 709.357 76.25 749.857 76.25C763.607 76.25 784.357 80.5 800.107 88.5L789.607 116.25C777.357 110.25 760.607 105.5 749.857 105.5C731.107 105.5 723.607 113.25 723.607 125.25C723.607 134 727.357 140.5 741.107 144.75L758.857 150.5C790.857 160.5 806.107 174.25 806.107 200C806.107 233.5 781.857 253.75 742.607 253.75C721.607 253.75 698.857 245.5 684.857 237.5Z" fill="black"/>
<rect y="32" width="129.705" height="131.632" fill="black"/>
<rect x="142.547" y="60.8948" width="101.453" height="102.737" fill="black"/>
<rect x="16.6947" y="177.116" width="113.011" height="114.937" fill="#4BABE8"/>
<rect x="142.547" y="177.116" width="86.0421" height="87.9684" fill="black"/>
</svg>
